<?xml version="1.0" encoding="UTF-8" standalone="no"?>
<svg
   xmlns:dc="http://purl.org/dc/elements/1.1/"
   xmlns:cc="http://creativecommons.org/ns#"
   xmlns:rdf="http://www.w3.org/1999/02/22-rdf-syntax-ns#"
   xmlns:svg="http://www.w3.org/2000/svg"
   xmlns="http://www.w3.org/2000/svg"
   xmlns:sodipodi="http://sodipodi.sourceforge.net/DTD/sodipodi-0.dtd"
   xmlns:inkscape="http://www.inkscape.org/namespaces/inkscape"
   width="600"
   height="600"
   viewBox="0 0 158.75 158.75"
   version="1.1"
   id="svg8"
   sodipodi:docname="hibernate.svg"
   inkscape:version="0.92.5 (2060ec1f9f, 2020-04-08)">
  <sodipodi:namedview
     pagecolor="#ffffff"
     bordercolor="#666666"
     borderopacity="1"
     objecttolerance="10"
     gridtolerance="10"
     guidetolerance="10"
     inkscape:pageopacity="0"
     inkscape:pageshadow="2"
     inkscape:window-width="1360"
     inkscape:window-height="715"
     id="namedview8"
     showgrid="false"
     inkscape:zoom="0.39333333"
     inkscape:cx="141.28329"
     inkscape:cy="300"
     inkscape:window-x="0"
     inkscape:window-y="24"
     inkscape:window-maximized="1"
     inkscape:current-layer="layer1" />
  <defs
     id="defs2" />
  <metadata
     id="metadata5">
    <rdf:RDF>
      <cc:Work
         rdf:about="">
        <dc:format>image/svg+xml</dc:format>
        <dc:type
           rdf:resource="http://purl.org/dc/dcmitype/StillImage" />
        <dc:title></dc:title>
      </cc:Work>
    </rdf:RDF>
  </metadata>
  <g
     id="layer1"
     transform="translate(0,-138.24998)"
     inkscape:label="layer1">
    <rect
       style="opacity:1;fill:none;fill-opacity:1;stroke:#577a47;stroke-width:6.8791666;stroke-miterlimit:4;stroke-dasharray:none;stroke-opacity:1"
       id="rect815"
       width="63.586029"
       height="63.201824"
       x="47.581985"
       y="186.02406" />
    <path
       style="opacity:1;fill:#577a47;fill-opacity:1;stroke:none;stroke-width:0.2;stroke-miterlimit:4;stroke-dasharray:none;stroke-opacity:1"
       d="M 300,10.714844 A 289.28571,289.28571 0 0 0 10.714844,300 289.28571,289.28571 0 0 0 300,589.28516 289.28571,289.28571 0 0 0 589.28516,300 289.28571,289.28571 0 0 0 300,10.714844 Z m 0,26.36914 A 262.91585,262.91585 0 0 1 562.91602,300 262.91585,262.91585 0 0 1 300,562.91602 262.91585,262.91585 0 0 1 37.083984,300 262.91585,262.91585 0 0 1 300,37.083984 Z"
       transform="matrix(0.26458333,0,0,0.26458333,0,138.24998)"
       id="path815"
       inkscape:connector-curvature="0" />
  </g>
</svg>
