<?xml version="1.0" encoding="UTF-8" standalone="no"?>
<svg
   xmlns:dc="http://purl.org/dc/elements/1.1/"
   xmlns:cc="http://creativecommons.org/ns#"
   xmlns:rdf="http://www.w3.org/1999/02/22-rdf-syntax-ns#"
   xmlns:svg="http://www.w3.org/2000/svg"
   xmlns="http://www.w3.org/2000/svg"
   width="600"
   height="600"
   viewBox="0 0 158.75 158.75"
   version="1.1"
   id="svg8">
  <defs
     id="defs2" />
  <metadata
     id="metadata5">
    <rdf:RDF>
      <cc:Work
         rdf:about="">
        <dc:format>image/svg+xml</dc:format>
        <dc:type
           rdf:resource="http://purl.org/dc/dcmitype/StillImage" />
        <dc:title></dc:title>
      </cc:Work>
    </rdf:RDF>
  </metadata>
  <g
     id="layer1"
     transform="translate(0,-138.24998)">
    <path
       style="display:inline;opacity:1;fill:#577a47;fill-opacity:1;stroke:none;stroke-width:0.05291667;stroke-miterlimit:4;stroke-dasharray:none;stroke-opacity:1"
       d="M 79.374999,141.08495 A 76.540176,76.540176 0 0 0 2.83497,217.62498 76.540176,76.540176 0 0 0 79.374999,294.16501 76.540176,76.540176 0 0 0 155.91503,217.62498 76.540176,76.540176 0 0 0 79.374999,141.08495 Z m 0,3.77961 A 72.760413,72.760413 0 0 1 152.13542,217.62498 72.760413,72.760413 0 0 1 79.374999,290.38539 72.760413,72.760413 0 0 1 6.6145841,217.62498 72.760413,72.760413 0 0 1 79.374999,144.86456 Z"
       id="path815" />
    <path
       style="display:inline;opacity:1;fill:none;fill-opacity:1;stroke:#577a47;stroke-width:6.71116877;stroke-miterlimit:4;stroke-dasharray:none;stroke-opacity:1"
       d="m 41.261856,155.62716 a 72.445685,72.445685 0 0 0 -26.517052,98.96303 72.445685,72.445685 0 0 0 98.962556,26.51627 72.445685,72.445685 0 0 0 17.65483,-14.44321 72.445692,72.445692 0 0 1 -77.525197,-34.64296 72.445692,72.445692 0 0 1 8.862209,-84.5198 72.445685,72.445685 0 0 0 -21.437346,8.12667 z"
       id="path816" />
    <text
       xml:space="preserve"
       style="font-style:normal;font-variant:normal;font-weight:bold;font-stretch:normal;font-size:24.50721741px;line-height:1.25;font-family:Pangolin;-inkscape-font-specification:'Pangolin Bold';letter-spacing:0px;word-spacing:0px;display:inline;fill:#577a47;fill-opacity:1;stroke:none;stroke-width:0.61268038"
       x="106.86416"
       y="211.77435"
       id="text826"
       transform="rotate(10.620778)"><tspan
         id="tspan824"
         x="106.86416"
         y="211.77435"
         style="font-style:normal;font-variant:normal;font-weight:bold;font-stretch:normal;font-size:58.81731796px;font-family:Pangolin;-inkscape-font-specification:'Pangolin Bold';fill:#577a47;fill-opacity:1;stroke-width:0.61268038">z</tspan></text>
    <path
       style="display:inline;opacity:1;fill:#577a47;fill-opacity:1;stroke:none;stroke-width:0.05068286;stroke-miterlimit:4;stroke-dasharray:none;stroke-opacity:1"
       d="M 79.375001,144.31599 A 73.309136,73.309136 0 0 0 6.0660047,217.62497 73.309136,73.309136 0 0 0 79.375001,290.93398 73.309136,73.309136 0 0 0 152.684,217.62497 73.309136,73.309136 0 0 0 79.375001,144.31599 Z m 0,3.62005 A 69.68893,69.68893 0 0 1 149.06394,217.62497 69.68893,69.68893 0 0 1 79.375001,287.31391 69.68893,69.68893 0 0 1 9.6860674,217.62497 69.68893,69.68893 0 0 1 79.375001,147.93604 Z"
       id="path815-3" />
    <text
       transform="rotate(-13.236047)"
       id="text897"
       y="230.54442"
       x="55.470802"
       style="font-style:normal;font-variant:normal;font-weight:bold;font-stretch:normal;font-size:42.33334732px;line-height:1.25;font-family:Pangolin;-inkscape-font-specification:'Pangolin Bold';letter-spacing:0px;word-spacing:0px;display:none;fill:#577a47;fill-opacity:1;stroke:none;stroke-width:0.26458332"
       xml:space="preserve"><tspan
         style="font-style:normal;font-variant:normal;font-weight:bold;font-stretch:normal;font-size:42.33334732px;font-family:Pangolin;-inkscape-font-specification:'Pangolin Bold';fill:#577a47;fill-opacity:1;stroke-width:0.26458332"
         y="230.54442"
         x="55.470802"
         id="tspan895">Z</tspan></text>
    <text
       xml:space="preserve"
       style="font-style:normal;font-variant:normal;font-weight:bold;font-stretch:normal;font-size:20.11007118px;line-height:1.25;font-family:Pangolin;-inkscape-font-specification:'Pangolin Bold';letter-spacing:0px;word-spacing:0px;display:inline;fill:#577a47;fill-opacity:1;stroke:none;stroke-width:0.50275177"
       x="49.047623"
       y="230.77875"
       id="text826-0"
       transform="rotate(-15.150277)"><tspan
         id="tspan824-6"
         x="49.047623"
         y="230.77875"
         style="font-style:normal;font-variant:normal;font-weight:bold;font-stretch:normal;font-size:48.2641716px;font-family:Pangolin;-inkscape-font-specification:'Pangolin Bold';fill:#577a47;fill-opacity:1;stroke-width:0.50275177">z</tspan></text>
  </g>
</svg>
