<?xml version="1.0" encoding="UTF-8" standalone="no"?>
<!-- Created with Inkscape (http://www.inkscape.org/) -->

<svg
   xmlns:dc="http://purl.org/dc/elements/1.1/"
   xmlns:cc="http://creativecommons.org/ns#"
   xmlns:rdf="http://www.w3.org/1999/02/22-rdf-syntax-ns#"
   xmlns:svg="http://www.w3.org/2000/svg"
   xmlns="http://www.w3.org/2000/svg"
   xmlns:sodipodi="http://sodipodi.sourceforge.net/DTD/sodipodi-0.dtd"
   xmlns:inkscape="http://www.inkscape.org/namespaces/inkscape"
   width="600"
   height="600"
   viewBox="0 0 158.75 158.75"
   version="1.1"
   id="svg8"
   sodipodi:docname="restart.svg"
   inkscape:version="0.92.5 (2060ec1f9f, 2020-04-08)">
  <defs
     id="defs2" />
  <sodipodi:namedview
     id="base"
     pagecolor="#ffffff"
     bordercolor="#666666"
     borderopacity="1.0"
     inkscape:pageopacity="0.0"
     inkscape:pageshadow="2"
     inkscape:zoom="0.35"
     inkscape:cx="158.57143"
     inkscape:cy="360"
     inkscape:document-units="mm"
     inkscape:current-layer="layer1"
     showgrid="false"
     fit-margin-top="0"
     fit-margin-left="0"
     fit-margin-right="0"
     fit-margin-bottom="0"
     inkscape:pagecheckerboard="true"
     units="px"
     inkscape:window-width="1360"
     inkscape:window-height="715"
     inkscape:window-x="0"
     inkscape:window-y="24"
     inkscape:window-maximized="1" />
  <metadata
     id="metadata5">
    <rdf:RDF>
      <cc:Work
         rdf:about="">
        <dc:format>image/svg+xml</dc:format>
        <dc:type
           rdf:resource="http://purl.org/dc/dcmitype/StillImage" />
        <dc:title />
      </cc:Work>
    </rdf:RDF>
  </metadata>
  <g
     inkscape:label="Layer 1"
     inkscape:groupmode="layer"
     id="layer1"
     transform="translate(0,-138.24998)">
    <path
       style="opacity:1;fill:#577a47;fill-opacity:1;stroke:none;stroke-width:0.2;stroke-miterlimit:4;stroke-dasharray:none;stroke-opacity:1"
       d="M 300,10.714844 A 289.28571,289.28571 0 0 0 166.14258,43.792969 l 9.8457,10.798828 A 274.99999,274.99999 0 0 1 300,25 274.99999,274.99999 0 0 1 575,300 274.99999,274.99999 0 0 1 439.66992,536.51758 l 9.79883,10.74609 A 289.28571,289.28571 0 0 0 589.28516,300 289.28571,289.28571 0 0 0 300,10.714844 Z M 144.37109,56.513672 A 289.28571,289.28571 0 0 0 10.714844,300 289.28571,289.28571 0 0 0 300,589.28516 289.28571,289.28571 0 0 0 427.19141,559.42578 l -10,-10.9668 A 274.99999,274.99999 0 0 1 300,575 274.99999,274.99999 0 0 1 25,300 274.99999,274.99999 0 0 1 154.02344,67.099609 Z"
       transform="matrix(0.26458333,0,0,0.26458333,0,138.24998)"
       id="path815"
       inkscape:connector-curvature="0" />
    <rect
       style="opacity:1;fill:#577a47;fill-opacity:1;stroke:none;stroke-width:0.0621728;stroke-miterlimit:4;stroke-dasharray:none;stroke-opacity:1"
       id="rect861"
       width="4.276309"
       height="67.886467"
       x="-113.11417"
       y="217.92409"
       transform="rotate(-42.296973)" />
    <rect
       style="opacity:1;fill:#577a47;fill-opacity:1;stroke:none;stroke-width:0.0621728;stroke-miterlimit:4;stroke-dasharray:none;stroke-opacity:1"
       id="rect861-7"
       width="4.276309"
       height="67.886467"
       x="-68.510101"
       y="142.35011"
       transform="rotate(-42.296973)" />
    <path
       style="opacity:1;fill:#577a47;fill-opacity:1;stroke:none;stroke-width:0.05056481;stroke-miterlimit:4;stroke-dasharray:none;stroke-opacity:1"
       d="m 80.134839,144.49068 a 73.138385,73.138385 0 0 0 -33.927432,8.01089 l 2.460731,2.75593 a 69.526612,69.526612 0 0 1 31.42918,-7.15541 69.526612,69.526612 0 0 1 68.800552,70.24522 69.526612,69.526612 0 0 1 -34.8341,59.43862 l 2.44902,2.74247 A 73.138385,73.138385 0 0 0 152.5093,218.38483 73.138385,73.138385 0 0 0 80.134839,144.49068 Z m -39.464903,11.16965 a 73.138385,73.138385 0 0 0 -34.4292344,61.20482 73.138385,73.138385 0 0 0 72.3744614,73.89412 73.138385,73.138385 0 0 0 32.233747,-7.21468 l -2.49929,-2.79877 A 69.526612,69.526612 0 0 1 78.652684,287.14784 69.526612,69.526612 0 0 1 9.8521373,216.90267 69.526612,69.526612 0 0 1 43.082344,158.36191 Z"
       id="path815-3"
       inkscape:connector-curvature="0" />
    <rect
       style="opacity:1;fill:#577a47;fill-opacity:1;stroke:none;stroke-width:0.0621728;stroke-miterlimit:4;stroke-dasharray:none;stroke-opacity:1"
       id="rect861-6"
       width="4.276309"
       height="67.886467"
       x="-115.89542"
       y="217.8535"
       transform="rotate(-42.296973)" />
    <rect
       style="opacity:1;fill:#577a47;fill-opacity:1;stroke:none;stroke-width:0.0621728;stroke-miterlimit:4;stroke-dasharray:none;stroke-opacity:1"
       id="rect861-7-7"
       width="4.276309"
       height="67.886467"
       x="-65.728836"
       y="142.4207"
       transform="rotate(-42.296973)" />
  </g>
</svg>
