<?xml version="1.0" encoding="UTF-8" standalone="no"?>
<!-- Created with Inkscape (http://www.inkscape.org/) -->

<svg
   xmlns:dc="http://purl.org/dc/elements/1.1/"
   xmlns:cc="http://creativecommons.org/ns#"
   xmlns:rdf="http://www.w3.org/1999/02/22-rdf-syntax-ns#"
   xmlns:svg="http://www.w3.org/2000/svg"
   xmlns="http://www.w3.org/2000/svg"
   xmlns:sodipodi="http://sodipodi.sourceforge.net/DTD/sodipodi-0.dtd"
   xmlns:inkscape="http://www.inkscape.org/namespaces/inkscape"
   width="600"
   height="600"
   viewBox="0 0 158.75 158.75"
   version="1.1"
   id="svg8"
   sodipodi:docname="suspend.svg"
   inkscape:version="0.92.5 (2060ec1f9f, 2020-04-08)">
  <defs
     id="defs2" />
  <sodipodi:namedview
     id="base"
     pagecolor="#ffffff"
     bordercolor="#666666"
     borderopacity="1.0"
     inkscape:pageopacity="0.0"
     inkscape:pageshadow="2"
     inkscape:zoom="0.7"
     inkscape:cx="75.8144"
     inkscape:cy="360"
     inkscape:document-units="mm"
     inkscape:current-layer="layer1"
     showgrid="false"
     fit-margin-top="0"
     fit-margin-left="0"
     fit-margin-right="0"
     fit-margin-bottom="0"
     inkscape:pagecheckerboard="true"
     units="px"
     inkscape:window-width="1360"
     inkscape:window-height="715"
     inkscape:window-x="0"
     inkscape:window-y="24"
     inkscape:window-maximized="1" />
  <metadata
     id="metadata5">
    <rdf:RDF>
      <cc:Work
         rdf:about="">
        <dc:format>image/svg+xml</dc:format>
        <dc:type
           rdf:resource="http://purl.org/dc/dcmitype/StillImage" />
        <dc:title />
      </cc:Work>
    </rdf:RDF>
  </metadata>
  <g
     inkscape:label="Layer 1"
     inkscape:groupmode="layer"
     id="layer1"
     transform="translate(0,-138.24998)">
    <path
       style="opacity:1;fill:#577a47;fill-opacity:1;stroke:none;stroke-width:0.2;stroke-miterlimit:4;stroke-dasharray:none;stroke-opacity:1"
       d="M 300,10.714844 A 289.28571,289.28571 0 0 0 10.714844,300 289.28571,289.28571 0 0 0 300,589.28516 289.28571,289.28571 0 0 0 589.28516,300 289.28571,289.28571 0 0 0 300,10.714844 Z M 300,25 A 274.99999,274.99999 0 0 1 575,300 274.99999,274.99999 0 0 1 300,575 274.99999,274.99999 0 0 1 25,300 274.99999,274.99999 0 0 1 300,25 Z"
       transform="matrix(0.26458333,0,0,0.26458333,0,138.24998)"
       id="path815"
       inkscape:connector-curvature="0" />
    <rect
       style="opacity:1;fill:#577a47;fill-opacity:1;stroke:none;stroke-width:0.0621728;stroke-miterlimit:4;stroke-dasharray:none;stroke-opacity:1"
       id="rect861"
       width="4.276309"
       height="67.886467"
       x="58.732315"
       y="183.49275" />
    <rect
       style="opacity:1;fill:#577a47;fill-opacity:1;stroke:none;stroke-width:0.0621728;stroke-miterlimit:4;stroke-dasharray:none;stroke-opacity:1"
       id="rect861-6"
       width="4.276309"
       height="67.886467"
       x="95.741379"
       y="183.87074" />
    <rect
       style="opacity:1;fill:#577a47;fill-opacity:1;stroke:none;stroke-width:0.0621728;stroke-miterlimit:4;stroke-dasharray:none;stroke-opacity:1"
       id="rect861-3"
       width="4.276309"
       height="67.886467"
       x="54.985172"
       y="183.49275" />
    <rect
       style="opacity:1;fill:#577a47;fill-opacity:1;stroke:none;stroke-width:0.0621728;stroke-miterlimit:4;stroke-dasharray:none;stroke-opacity:1"
       id="rect861-6-6"
       width="4.276309"
       height="67.886467"
       x="99.48851"
       y="183.87074" />
    <path
       style="opacity:1;fill:#577a47;fill-opacity:1;stroke:none;stroke-width:0.05056482;stroke-miterlimit:4;stroke-dasharray:none;stroke-opacity:1"
       d="M 79.375005,144.48673 A 73.138385,73.138385 0 0 0 6.2367567,217.62497 73.138385,73.138385 0 0 0 79.375005,290.76322 73.138385,73.138385 0 0 0 152.51324,217.62497 73.138385,73.138385 0 0 0 79.375005,144.48673 Z m 0,3.61162 A 69.526611,69.526611 0 0 1 148.90161,217.62497 69.526611,69.526611 0 0 1 79.375005,287.15159 69.526611,69.526611 0 0 1 9.8483872,217.62497 69.526611,69.526611 0 0 1 79.375005,148.09835 Z"
       id="path815-7"
       inkscape:connector-curvature="0" />
  </g>
</svg>
